<?xml version="1.0" encoding="utf-8"?>
<!-- Generator: Adobe Illustrator 19.1.0, SVG Export Plug-In . SVG Version: 6.00 Build 0)  -->
<svg version="1.1" xmlns="http://www.w3.org/2000/svg" xmlns:xlink="http://www.w3.org/1999/xlink" x="0px" y="0px"
	 viewBox="0 0 792 612" style="enable-background:new 0 0 792 612;" xml:space="preserve">
<style type="text/css">
	.st0{fill:#75D701;}
	.st1{fill:#24A7EF;}
	.st2{fill:#5A6C7C;}
</style>
<g id="Layer_4">
	<g>
		<path class="st0" d="M437,317.9c-8.5-3.9-16.5-7.7-24.1-0.1c0,0-0.7,0.7-0.9,0.9l24.6,24.6l25-25c-3.2,3-6.5,4.1-9.9,4.1
			C446.8,322.5,441.9,320.2,437,317.9"/>
		<path class="st1" d="M438,314.8c8,3.7,15.6,7.2,22.3,0.6c0,0,0.6-0.6,0.9-0.9l-24.6-24.6l-24.8,24.8
			C420.4,306.6,429.7,310.9,438,314.8"/>
		<path class="st2" d="M310.7,304.6c0-1.3-0.5-2.4-1.4-3.2s-2.4-1.2-4.4-1.2h-5.5v16.5h5.6c1.1,0,2-0.1,2.7-0.3
			c0.8-0.2,1.4-0.5,1.9-0.9c0.5-0.4,0.9-0.9,1.1-1.5c0.2-0.6,0.4-1.2,0.4-1.9c0-0.9-0.3-1.7-0.8-2.4c-0.6-0.7-1.4-1.1-2.5-1.4
			C309.8,307.5,310.7,306.3,310.7,304.6 M307.5,306.7c-0.6,0.5-1.5,0.7-2.7,0.7h-3.1v-5.2h3.4c1.1,0,1.9,0.2,2.5,0.7
			c0.6,0.4,0.8,1.1,0.8,1.9C308.5,305.5,308.1,306.2,307.5,306.7 M305.3,314.6h-3.6v-5.2h3.2c1.2,0,2.1,0.2,2.9,0.6
			c0.8,0.4,1.1,1.1,1.1,2C309,313.8,307.8,314.6,305.3,314.6"/>
		<path class="st2" d="M314.9,310.9c1.5,0,2.9,0,4.1,0c0.5,0,1,0,1.5,0h1.3h1.3c0.1-0.3,0.2-0.6,0.2-0.9c0-0.3,0.1-0.7,0.1-1
			c0-1.4-0.4-2.6-1.2-3.4c-0.8-0.9-1.9-1.3-3.4-1.3c-0.8,0-1.6,0.2-2.4,0.5c-0.7,0.3-1.4,0.8-1.9,1.3c-0.5,0.6-0.9,1.3-1.3,2.1
			c-0.3,0.8-0.5,1.7-0.5,2.7c0,0.9,0.1,1.8,0.4,2.5c0.3,0.8,0.7,1.4,1.3,2c0.5,0.6,1.2,1,1.9,1.3c0.7,0.3,1.6,0.5,2.5,0.5
			c0.8,0,1.5-0.1,2.2-0.2c0.7-0.2,1.3-0.4,1.9-0.8l-0.4-2c-0.5,0.3-1.1,0.6-1.7,0.7c-0.6,0.2-1.3,0.2-1.9,0.2
			c-0.6,0-1.1-0.1-1.6-0.3c-0.5-0.2-0.9-0.5-1.2-0.8c-0.3-0.4-0.6-0.8-0.8-1.3c-0.2-0.5-0.3-1-0.3-1.6V310.9z M315,309.3
			c0.1-0.4,0.2-0.8,0.3-1.2c0.2-0.4,0.4-0.7,0.7-1c0.3-0.3,0.6-0.5,1.1-0.7c0.4-0.2,0.9-0.3,1.4-0.3c0.9,0,1.6,0.3,2.1,0.8
			c0.4,0.5,0.7,1.3,0.7,2.1v0.2L315,309.3z"/>
		<polygon class="st2" points="335.1,304.6 332.8,304.6 329.4,314 325.9,304.6 323.6,304.6 328.3,316.7 330.3,316.7 		"/>
		<path class="st2" d="M337.3,310.9c1.5,0,2.9,0,4.1,0c0.5,0,1,0,1.5,0h1.3h1.3c0.1-0.3,0.2-0.6,0.2-0.9c0-0.3,0.1-0.7,0.1-1
			c0-1.4-0.4-2.6-1.2-3.4c-0.8-0.9-1.9-1.3-3.4-1.3c-0.8,0-1.6,0.2-2.4,0.5c-0.7,0.3-1.4,0.8-1.9,1.3c-0.5,0.6-0.9,1.3-1.3,2.1
			c-0.3,0.8-0.5,1.7-0.5,2.7c0,0.9,0.1,1.8,0.4,2.5c0.3,0.8,0.7,1.4,1.3,2c0.5,0.6,1.2,1,1.9,1.3c0.7,0.3,1.6,0.5,2.5,0.5
			c0.8,0,1.5-0.1,2.2-0.2c0.7-0.2,1.3-0.4,1.9-0.8l-0.4-2c-0.5,0.3-1.1,0.6-1.7,0.7c-0.6,0.2-1.3,0.2-1.9,0.2
			c-0.6,0-1.1-0.1-1.6-0.3c-0.5-0.2-0.9-0.5-1.2-0.8c-0.3-0.4-0.6-0.8-0.8-1.3c-0.2-0.5-0.3-1-0.3-1.6V310.9z M337.4,309.3
			c0.1-0.4,0.2-0.8,0.3-1.2c0.2-0.4,0.4-0.7,0.7-1c0.3-0.3,0.6-0.5,1.1-0.7c0.4-0.2,0.9-0.3,1.4-0.3c0.9,0,1.6,0.3,2.1,0.8
			c0.4,0.5,0.7,1.3,0.7,2.1v0.2L337.4,309.3z"/>
		<path class="st2" d="M349.9,308.8c0.5-0.8,1-1.5,1.5-1.9c0.5-0.4,1.1-0.6,1.7-0.6c0.3,0,0.6,0,0.9,0.1c0.3,0.1,0.7,0.2,1,0.4
			l0.6-2c-0.6-0.4-1.4-0.6-2.3-0.6c-0.8,0-1.4,0.2-1.9,0.6c-0.5,0.4-1,0.9-1.4,1.6v-2.1l-2.2,0.3v12.1h2.2V308.8z"/>
		<path class="st2" d="M359.1,299.3c-0.2-0.3-0.6-0.5-1.1-0.5c-0.5,0-0.9,0.2-1.1,0.5c-0.2,0.3-0.3,0.7-0.3,1.1
			c0,0.4,0.1,0.8,0.3,1.1c0.2,0.3,0.6,0.5,1.1,0.5c0.5,0,0.9-0.2,1.1-0.5c0.2-0.3,0.3-0.7,0.3-1.1
			C359.4,300,359.3,299.6,359.1,299.3 M359.1,316.7v-12.5l-2.2,0.3v12.1H359.1z"/>
		<path class="st2" d="M369.9,304.6c-0.4-0.1-0.8-0.2-1.3-0.3c-0.5-0.1-0.9-0.1-1.3-0.1c-0.9,0-1.7,0.2-2.5,0.5
			c-0.8,0.3-1.4,0.8-1.9,1.4c-0.5,0.6-1,1.3-1.3,2.1c-0.3,0.8-0.4,1.6-0.4,2.6c0,0.9,0.1,1.8,0.4,2.5c0.2,0.8,0.6,1.4,1.1,2
			c0.5,0.6,1,1,1.7,1.3c0.7,0.3,1.4,0.5,2.3,0.5c0.7,0,1.4-0.2,1.9-0.5c0.5-0.3,1-0.7,1.5-1.1l0,1.1h2.2v-18.1l-2.2,0.3V304.6z
			 M369.9,307v6.9c-0.4,0.4-0.8,0.6-1.3,0.8c-0.5,0.2-1,0.3-1.6,0.3c-1.1,0-2-0.4-2.6-1.2c-0.6-0.8-0.9-1.9-0.9-3.2
			c0-0.6,0.1-1.2,0.2-1.7c0.2-0.5,0.4-1,0.7-1.4c0.3-0.4,0.7-0.7,1.2-1c0.5-0.2,1-0.4,1.6-0.4C368.3,306.1,369.2,306.4,369.9,307"/>
		<path class="st2" d="M377.1,306.7c0.5-0.5,1.1-0.8,1.9-0.8c0.9,0,1.6,0.3,2.1,0.8c0.5,0.5,0.7,1.2,0.7,1.9c0,0.8-0.2,1.5-0.7,2
			c-0.5,0.5-1.1,0.8-1.9,0.8c-0.9,0-1.6-0.2-2.1-0.7c-0.5-0.5-0.8-1.1-0.8-1.9C376.4,307.9,376.7,307.3,377.1,306.7 M378.5,317.3
			c0.4,0,0.8,0,1.2,0c1.2,0,2.1,0.1,2.7,0.3c0.6,0.2,0.9,0.6,0.9,1.3c0,0.4-0.1,0.7-0.3,1c-0.2,0.3-0.5,0.6-0.9,0.8
			c-0.4,0.2-0.8,0.4-1.3,0.5c-0.5,0.1-1,0.2-1.6,0.2c-1.2,0-2.1-0.2-2.8-0.6c-0.7-0.4-1-1-1-1.6c0-0.5,0.2-0.9,0.6-1.2
			c0.4-0.3,0.9-0.6,1.5-0.8C377.7,317.3,378.1,317.3,378.5,317.3 M373.9,317.9c-0.4,0.5-0.7,1.1-0.7,1.8c0,0.5,0.1,1,0.4,1.5
			c0.3,0.4,0.7,0.8,1.2,1.1c0.5,0.3,1.1,0.5,1.8,0.7c0.7,0.2,1.4,0.2,2.2,0.2c0.9,0,1.8-0.1,2.6-0.4c0.8-0.2,1.5-0.6,2.1-1
			c0.6-0.4,1-0.9,1.4-1.5c0.3-0.6,0.5-1.2,0.5-1.8c0-1.1-0.4-1.9-1.3-2.4c-0.9-0.5-2.2-0.8-4-0.8H379c-0.6,0-1,0-1.4-0.1
			c-0.4-0.1-0.6-0.1-0.8-0.2c-0.2-0.1-0.3-0.2-0.4-0.4c-0.1-0.1-0.1-0.3-0.1-0.5c0-0.3,0.1-0.6,0.4-0.8c0.3-0.2,0.5-0.4,0.8-0.5
			c0.4,0.1,0.6,0.2,0.9,0.2c0.2,0,0.5,0.1,0.8,0.1c0.7,0,1.3-0.1,1.9-0.4c0.6-0.2,1.1-0.6,1.5-0.9c0.4-0.4,0.8-0.9,1-1.4
			c0.2-0.5,0.4-1.1,0.4-1.7c0-0.5-0.1-0.9-0.2-1.4c-0.1-0.5-0.3-0.8-0.6-1.1l2.3,0.4l-0.1-2.1l-3.1,0.3c-0.4-0.2-0.8-0.3-1.4-0.5
			c-0.5-0.1-1.1-0.2-1.8-0.2c-0.8,0-1.5,0.1-2.1,0.4c-0.6,0.3-1.1,0.6-1.5,1c-0.4,0.4-0.7,0.9-0.9,1.4c-0.2,0.5-0.3,1.1-0.3,1.7
			c0,0.8,0.2,1.6,0.5,2.2c0.4,0.6,0.8,1.1,1.5,1.5c-0.6,0.2-1.1,0.5-1.5,0.9c-0.4,0.4-0.5,0.9-0.5,1.4c0,0.4,0.1,0.8,0.4,1.2
			c0.3,0.4,0.7,0.6,1.2,0.9C375,317,374.3,317.3,373.9,317.9"/>
		<path class="st2" d="M388.1,310.9c1.5,0,2.9,0,4.1,0c0.5,0,1,0,1.5,0h1.3h1.3c0.1-0.3,0.2-0.6,0.2-0.9c0-0.3,0.1-0.7,0.1-1
			c0-1.4-0.4-2.6-1.2-3.4c-0.8-0.9-1.9-1.3-3.4-1.3c-0.8,0-1.6,0.2-2.4,0.5c-0.7,0.3-1.4,0.8-1.9,1.3c-0.5,0.6-0.9,1.3-1.3,2.1
			c-0.3,0.8-0.5,1.7-0.5,2.7c0,0.9,0.1,1.8,0.4,2.5c0.3,0.8,0.7,1.4,1.3,2c0.5,0.6,1.2,1,1.9,1.3c0.7,0.3,1.6,0.5,2.5,0.5
			c0.8,0,1.5-0.1,2.2-0.2c0.7-0.2,1.3-0.4,1.9-0.8l-0.4-2c-0.5,0.3-1.1,0.6-1.7,0.7c-0.6,0.2-1.3,0.2-1.9,0.2
			c-0.6,0-1.1-0.1-1.6-0.3c-0.5-0.2-0.9-0.5-1.2-0.8c-0.3-0.4-0.6-0.8-0.8-1.3c-0.2-0.5-0.3-1-0.3-1.6V310.9z M388.2,309.3
			c0.1-0.4,0.2-0.8,0.3-1.2c0.2-0.4,0.4-0.7,0.7-1c0.3-0.3,0.6-0.5,1.1-0.7c0.4-0.2,0.9-0.3,1.4-0.3c0.9,0,1.6,0.3,2.1,0.8
			c0.4,0.5,0.7,1.3,0.7,2.1v0.2L388.2,309.3z"/>
		<path class="st2" d="M302.7,332.2c-0.5-0.5-0.7-1.1-0.7-1.8c0-0.6,0.2-1.1,0.7-1.6c0.4-0.5,1.1-0.7,1.9-0.7c0.8,0,1.4,0.2,1.9,0.7
			c0.5,0.4,0.7,1,0.7,1.7c0,0.7-0.2,1.4-0.7,1.8c-0.4,0.5-1,0.9-1.7,1.2C303.8,333.1,303.1,332.7,302.7,332.2 M306.3,340.8
			c-0.8,0.5-1.6,0.8-2.4,0.8c-1,0-1.8-0.3-2.3-0.9c-0.5-0.6-0.8-1.3-0.8-2.1c0-0.8,0.3-1.5,0.9-2.1c0.6-0.6,1.3-1.1,2.2-1.5
			c0.8,0.3,1.5,0.7,2.3,1.3c0.8,0.6,1.5,1.4,2.3,2.2C307.7,339.6,307,340.3,306.3,340.8 M309.3,339.8l2.9,3.7l2.3-0.4l-4-4.8l4-5.1
			h-2.5l-2.5,3.9c-0.5-0.6-1.1-1.2-1.8-1.7c-0.6-0.5-1.2-0.9-1.7-1.2c0.9-0.4,1.6-0.9,2.2-1.5c0.6-0.7,0.9-1.4,0.9-2.3
			c0-0.5-0.1-1-0.3-1.5c-0.2-0.5-0.5-0.9-0.9-1.3c-0.4-0.4-0.8-0.7-1.4-0.9c-0.6-0.2-1.2-0.3-2-0.3c-0.8,0-1.5,0.1-2.1,0.4
			c-0.6,0.2-1.1,0.6-1.5,1c-0.4,0.4-0.7,0.9-1,1.4c-0.2,0.5-0.3,1-0.3,1.6c0,1.6,0.9,2.9,2.7,3.9c-0.5,0.2-1.1,0.4-1.6,0.6
			c-0.5,0.3-0.9,0.6-1.3,1c-0.4,0.4-0.6,0.8-0.9,1.3c-0.2,0.5-0.3,1-0.3,1.5c0,0.6,0.1,1.2,0.3,1.8c0.2,0.6,0.5,1.1,1,1.5
			c0.4,0.4,1,0.8,1.6,1c0.6,0.2,1.3,0.4,2.1,0.4c1.2,0,2.2-0.3,3.2-1C307.7,341.8,308.5,340.9,309.3,339.8"/>
		<path class="st2" d="M332.7,331.4c-0.4-1-1-1.8-1.7-2.6c-0.8-0.7-1.7-1.3-2.7-1.6c-1.1-0.4-2.3-0.6-3.7-0.6h-5v16.5h4.8
			c1.4,0,2.7-0.2,3.8-0.6c1.1-0.4,2-1,2.8-1.7c0.8-0.7,1.3-1.6,1.7-2.6c0.4-1,0.6-2.2,0.6-3.4C333.3,333.5,333.1,332.4,332.7,331.4
			 M330.6,337.6c-0.3,0.8-0.7,1.4-1.3,1.9c-0.6,0.5-1.2,0.9-2,1.2c-0.8,0.3-1.7,0.4-2.7,0.4h-2.7v-12.3h2.6c2.1,0,3.7,0.5,4.9,1.6
			c1.1,1,1.7,2.6,1.7,4.6C331.1,335.9,330.9,336.8,330.6,337.6"/>
		<path class="st2" d="M337.8,325.8c-0.2-0.3-0.6-0.5-1.1-0.5c-0.5,0-0.9,0.2-1.1,0.5c-0.2,0.3-0.3,0.7-0.3,1.1
			c0,0.4,0.1,0.8,0.3,1.1c0.2,0.3,0.6,0.5,1.1,0.5c0.5,0,0.9-0.2,1.1-0.5c0.2-0.3,0.3-0.7,0.3-1.1
			C338.1,326.4,338,326.1,337.8,325.8 M337.8,343.1v-12.5l-2.2,0.3v12.1H337.8z"/>
		<path class="st2" d="M346.9,340.4c-0.3,0.4-0.8,0.7-1.2,0.9c-0.5,0.2-1,0.4-1.5,0.4c-0.7,0-1.2-0.2-1.6-0.5
			c-0.4-0.4-0.6-0.8-0.6-1.3c0-0.7,0.4-1.3,1.1-1.7c0.7-0.4,2-0.7,3.8-1V340.4z M347,341.8c0.2,0.5,0.5,0.9,1,1.3
			c0.5,0.3,1.2,0.4,2.2,0.3l0.1-1.8c-0.5,0-0.9-0.1-1-0.2c-0.1-0.1-0.2-0.5-0.2-1v-5.1c0-1.7-0.3-2.8-1.1-3.6
			c-0.7-0.7-1.9-1.1-3.6-1.1c-0.9,0-1.7,0.1-2.5,0.4c-0.8,0.3-1.5,0.6-2,1l0.4,1.9c0.6-0.4,1.2-0.7,1.9-0.9c0.7-0.2,1.4-0.4,2-0.4
			c1,0,1.7,0.2,2.1,0.6c0.4,0.4,0.6,1.1,0.6,2.1v0.3c-1.4,0.1-2.6,0.2-3.5,0.5c-0.9,0.3-1.7,0.6-2.2,1c-0.5,0.4-0.9,0.8-1.1,1.3
			c-0.2,0.5-0.3,1-0.3,1.6c0,0.5,0.1,0.9,0.3,1.4c0.2,0.4,0.4,0.8,0.8,1.1c0.3,0.3,0.7,0.5,1.2,0.7c0.5,0.2,1,0.3,1.5,0.3
			c0.6,0,1.2-0.1,1.8-0.4c0.6-0.3,1.1-0.7,1.5-1.3H347z"/>
		<path class="st2" d="M369.1,343.1v-8.2c0-1.3-0.3-2.4-1-3.1c-0.7-0.7-1.6-1.1-2.7-1.1c-0.8,0-1.6,0.2-2.3,0.5
			c-0.7,0.3-1.4,0.8-2,1.5c-0.3-0.7-0.7-1.2-1.3-1.5c-0.6-0.3-1.2-0.5-1.9-0.5c-1.4,0-2.7,0.5-3.9,1.6l0-1.6l-2.2,0.3v12.1h2.2v-9.2
			c0.3-0.3,0.8-0.6,1.3-0.9c0.5-0.2,1.1-0.4,1.8-0.4c0.8,0,1.4,0.2,1.7,0.6c0.4,0.4,0.6,1.2,0.6,2.2v7.6h2.2v-8.3v-0.7
			c0.3-0.3,0.8-0.6,1.3-0.9c0.5-0.3,1.1-0.4,1.8-0.4c0.8,0,1.4,0.2,1.7,0.6c0.4,0.4,0.6,1.2,0.6,2.2v7.6H369.1z"/>
		<path class="st2" d="M382.4,334.4c-0.3-0.8-0.7-1.5-1.2-2c-0.5-0.6-1.1-1-1.8-1.3c-0.7-0.3-1.5-0.5-2.4-0.5
			c-0.9,0-1.7,0.2-2.4,0.5c-0.7,0.3-1.4,0.7-1.9,1.3c-0.5,0.6-0.9,1.3-1.2,2c-0.3,0.8-0.4,1.7-0.4,2.6c0,1,0.1,1.8,0.4,2.6
			c0.3,0.8,0.7,1.5,1.2,2c0.5,0.6,1.1,1,1.8,1.3c0.7,0.3,1.5,0.5,2.4,0.5c0.8,0,1.6-0.2,2.4-0.5c0.7-0.3,1.4-0.7,1.9-1.3
			c0.5-0.6,0.9-1.2,1.2-2c0.3-0.8,0.4-1.7,0.4-2.6C382.9,336.1,382.7,335.2,382.4,334.4 M380.5,338.9c-0.2,0.5-0.4,1-0.7,1.4
			c-0.3,0.4-0.7,0.7-1.2,0.9c-0.5,0.2-1,0.3-1.6,0.3c-0.6,0-1.1-0.1-1.6-0.3c-0.5-0.2-0.9-0.5-1.2-0.9c-0.3-0.4-0.6-0.9-0.7-1.4
			c-0.2-0.5-0.3-1.1-0.3-1.8c0-0.6,0.1-1.3,0.2-1.8c0.2-0.6,0.4-1,0.7-1.4c0.3-0.4,0.7-0.7,1.2-0.9c0.5-0.2,1-0.3,1.6-0.3
			c0.6,0,1.1,0.1,1.6,0.3c0.5,0.2,0.9,0.5,1.2,0.9c0.3,0.4,0.6,0.9,0.7,1.4c0.2,0.6,0.3,1.2,0.3,1.8
			C380.7,337.8,380.6,338.4,380.5,338.9"/>
		<path class="st2" d="M394.9,343.1v-8.3c0-1.3-0.3-2.3-1-3.1c-0.7-0.7-1.6-1.1-2.9-1.1c-0.7,0-1.4,0.2-2.1,0.5
			c-0.7,0.3-1.3,0.8-1.9,1.3l0-1.8l-2.2,0.3v12.1h2.2v-9.1c0.3-0.3,0.8-0.6,1.4-0.9c0.6-0.3,1.1-0.4,1.8-0.4c0.9,0,1.5,0.2,1.9,0.6
			c0.4,0.4,0.6,1.1,0.6,2.2v7.6H394.9z"/>
		<path class="st2" d="M405.6,331.1c-0.4-0.1-0.8-0.2-1.3-0.3c-0.5-0.1-0.9-0.1-1.3-0.1c-0.9,0-1.7,0.2-2.5,0.5
			c-0.8,0.3-1.4,0.8-1.9,1.4c-0.5,0.6-1,1.3-1.3,2.1c-0.3,0.8-0.4,1.6-0.4,2.6c0,0.9,0.1,1.8,0.4,2.5c0.2,0.8,0.6,1.4,1.1,2
			c0.5,0.6,1,1,1.7,1.3c0.7,0.3,1.4,0.5,2.3,0.5c0.7,0,1.4-0.2,1.9-0.5c0.5-0.3,1-0.7,1.5-1.1l0,1.1h2.2V325l-2.2,0.3V331.1z
			 M405.6,333.5v6.9c-0.4,0.4-0.8,0.6-1.3,0.8c-0.5,0.2-1,0.3-1.6,0.3c-1.1,0-2-0.4-2.6-1.2c-0.6-0.8-0.9-1.9-0.9-3.2
			c0-0.6,0.1-1.2,0.2-1.7c0.2-0.5,0.4-1,0.7-1.4c0.3-0.4,0.7-0.7,1.2-1c0.5-0.2,1-0.4,1.6-0.4C404,332.6,404.9,332.9,405.6,333.5"/>
	</g>
</g>
<g id="Layer_2">
</g>
</svg>
